<svg xmlns="http://www.w3.org/2000/svg" xmlns:xlink="http://www.w3.org/1999/xlink" viewBox="0 0 1300 1300"><defs><style>.cls-1{fill:#63717c;}.cls-2{fill:#c5ccd1;}.cls-3{fill:#363f38;}.cls-4{fill:url(#Dégradé_sans_nom_30);}.cls-5{fill:url(#Dégradé_sans_nom_30-2);}.cls-6{fill:url(#Dégradé_sans_nom_30-3);}.cls-7{fill:url(#Dégradé_sans_nom_30-4);}.cls-8{opacity:0.24;}.cls-9{fill:none;stroke:#000;stroke-miterlimit:10;}</style><linearGradient id="Dégradé_sans_nom_30" x1="524.85" y1="651" x2="524.85" y2="201" gradientUnits="userSpaceOnUse"><stop offset="0" stop-color="#00387c"/><stop offset="1" stop-color="#3fff6c"/></linearGradient><linearGradient id="Dégradé_sans_nom_30-2" x1="781.71" y1="651" x2="781.71" y2="318.34" xlink:href="#Dégradé_sans_nom_30"/><linearGradient id="Dégradé_sans_nom_30-3" x1="913.15" y1="650.85" x2="913.15" y2="509.82" xlink:href="#Dégradé_sans_nom_30"/><linearGradient id="Dégradé_sans_nom_30-4" x1="649.13" y1="651.03" x2="649.13" y2="386" xlink:href="#Dégradé_sans_nom_30"/></defs><title>Plan de travail 1</title><g id="Calque_1" data-name="Calque 1"><path class="cls-1" d="M181,569,644.07,369.7a47.81,47.81,0,0,1,47.35.24L1157,588c32.11,18.53,30.25,114.72-2.11,132.82L749,947.87a135.65,135.65,0,0,1-134.43-1.11L197.28,704.16C164,684,148.82,587.14,181,569Z"/><path class="cls-2" d="M191.17,558.57,598.31,329.09a126.5,126.5,0,0,1,125.33.63l425.15,245.36c32.11,18.53,31.8,65-.56,83.09L743.45,884.62a137.84,137.84,0,0,1-136.56-1.12l-416.27-242C158.68,622.94,159,576.71,191.17,558.57Z"/><path class="cls-3" d="M408,704l579.93,8.58a14.12,14.12,0,0,0,14.32-14.79h0A18.71,18.71,0,0,0,983.91,680L442,672,431,159c-.81-13.27-7.68-33-20-28h-1c-10.19,4.13-12.86,15.26-12.66,26.26L407,669Z"/><rect class="cls-4" x="479" y="201" width="91.7" height="450" rx="17.62"/><rect class="cls-5" x="735.86" y="318.34" width="91.7" height="332.66" rx="26.22"/><rect class="cls-6" x="867.3" y="509.82" width="91.7" height="141.03" rx="22.91"/><rect class="cls-7" x="603.28" y="386" width="91.7" height="265.03" rx="22.88"/></g><g id="Calque_2" data-name="Calque 2"><g class="cls-8"><polygon class="cls-9" points="2965.68 650.28 650.04 1987.33 -1665.59 650.28 650.04 -686.76 2965.68 650.28"/><line class="cls-9" x1="668.42" y1="-676.15" x2="-1647.21" y2="660.9"/><line class="cls-9" x1="686.8" y1="-665.54" x2="-1628.84" y2="671.51"/><line class="cls-9" x1="705.18" y1="-654.93" x2="-1610.46" y2="682.12"/><line class="cls-9" x1="723.56" y1="-644.32" x2="-1592.08" y2="692.73"/><line class="cls-9" x1="741.94" y1="-633.71" x2="-1573.7" y2="703.34"/><line class="cls-9" x1="760.31" y1="-623.1" x2="-1555.32" y2="713.95"/><line class="cls-9" x1="778.69" y1="-612.48" x2="-1536.95" y2="724.56"/><line class="cls-9" x1="797.07" y1="-601.87" x2="-1518.57" y2="735.18"/><line class="cls-9" x1="815.45" y1="-591.26" x2="-1500.19" y2="745.79"/><line class="cls-9" x1="833.83" y1="-580.65" x2="-1481.81" y2="756.4"/><line class="cls-9" x1="852.2" y1="-570.04" x2="-1463.43" y2="767.01"/><line class="cls-9" x1="870.58" y1="-559.43" x2="-1445.06" y2="777.62"/><line class="cls-9" x1="888.96" y1="-548.82" x2="-1426.68" y2="788.23"/><line class="cls-9" x1="907.34" y1="-538.2" x2="-1408.3" y2="798.84"/><line class="cls-9" x1="925.72" y1="-527.59" x2="-1389.92" y2="809.46"/><line class="cls-9" x1="944.09" y1="-516.98" x2="-1371.54" y2="820.07"/><line class="cls-9" x1="962.47" y1="-506.37" x2="-1353.16" y2="830.68"/><line class="cls-9" x1="980.85" y1="-495.76" x2="-1334.79" y2="841.29"/><line class="cls-9" x1="999.23" y1="-485.15" x2="-1316.41" y2="851.9"/><line class="cls-9" x1="1017.61" y1="-474.54" x2="-1298.03" y2="862.51"/><line class="cls-9" x1="1035.98" y1="-463.92" x2="-1279.65" y2="873.13"/><line class="cls-9" x1="1054.36" y1="-453.31" x2="-1261.27" y2="883.74"/><line class="cls-9" x1="1072.74" y1="-442.7" x2="-1242.9" y2="894.35"/><line class="cls-9" x1="1091.12" y1="-432.09" x2="-1224.52" y2="904.96"/><line class="cls-9" x1="1109.5" y1="-421.48" x2="-1206.14" y2="915.57"/><line class="cls-9" x1="1127.87" y1="-410.87" x2="-1187.76" y2="926.18"/><line class="cls-9" x1="1146.25" y1="-400.25" x2="-1169.38" y2="936.79"/><line class="cls-9" x1="1164.63" y1="-389.64" x2="-1151.01" y2="947.41"/><line class="cls-9" x1="1183.01" y1="-379.03" x2="-1132.63" y2="958.02"/><line class="cls-9" x1="1201.39" y1="-368.42" x2="-1114.25" y2="968.63"/><line class="cls-9" x1="1219.76" y1="-357.81" x2="-1095.87" y2="979.24"/><line class="cls-9" x1="1238.14" y1="-347.2" x2="-1077.49" y2="989.85"/><line class="cls-9" x1="1256.52" y1="-336.59" x2="-1059.12" y2="1000.46"/><line class="cls-9" x1="1274.9" y1="-325.97" x2="-1040.74" y2="1011.07"/><line class="cls-9" x1="1293.28" y1="-315.36" x2="-1022.36" y2="1021.69"/><line class="cls-9" x1="1311.66" y1="-304.75" x2="-1003.98" y2="1032.3"/><line class="cls-9" x1="1330.03" y1="-294.14" x2="-985.6" y2="1042.91"/><line class="cls-9" x1="1348.41" y1="-283.53" x2="-967.23" y2="1053.52"/><line class="cls-9" x1="1366.79" y1="-272.92" x2="-948.85" y2="1064.13"/><line class="cls-9" x1="1385.17" y1="-262.31" x2="-930.47" y2="1074.74"/><line class="cls-9" x1="1403.55" y1="-251.69" x2="-912.09" y2="1085.36"/><line class="cls-9" x1="1421.92" y1="-241.08" x2="-893.71" y2="1095.97"/><line class="cls-9" x1="1440.3" y1="-230.47" x2="-875.34" y2="1106.58"/><line class="cls-9" x1="1458.68" y1="-219.86" x2="-856.96" y2="1117.19"/><polyline class="cls-9" points="1477.06 -209.25 678.23 252 -838.58 1127.8"/><line class="cls-9" x1="1495.44" y1="-198.64" x2="-820.2" y2="1138.41"/><line class="cls-9" x1="1513.81" y1="-188.02" x2="-801.82" y2="1149.02"/><line class="cls-9" x1="1532.19" y1="-177.41" x2="-783.44" y2="1159.64"/><line class="cls-9" x1="1550.57" y1="-166.8" x2="-765.07" y2="1170.25"/><line class="cls-9" x1="1568.95" y1="-156.19" x2="-746.69" y2="1180.86"/><line class="cls-9" x1="1587.33" y1="-145.58" x2="-728.31" y2="1191.47"/><line class="cls-9" x1="1605.7" y1="-134.97" x2="-709.93" y2="1202.08"/><line class="cls-9" x1="1624.08" y1="-124.36" x2="-691.55" y2="1212.69"/><line class="cls-9" x1="1642.46" y1="-113.74" x2="-673.18" y2="1223.3"/><line class="cls-9" x1="1660.84" y1="-103.13" x2="-654.8" y2="1233.92"/><line class="cls-9" x1="1679.22" y1="-92.52" x2="-636.42" y2="1244.53"/><line class="cls-9" x1="1697.59" y1="-81.91" x2="-618.04" y2="1255.14"/><line class="cls-9" x1="1715.97" y1="-71.3" x2="-599.66" y2="1265.75"/><line class="cls-9" x1="1734.35" y1="-60.69" x2="-581.29" y2="1276.36"/><line class="cls-9" x1="1752.73" y1="-50.08" x2="-562.91" y2="1286.97"/><line class="cls-9" x1="1771.11" y1="-39.46" x2="-544.53" y2="1297.58"/><line class="cls-9" x1="1789.49" y1="-28.85" x2="-526.15" y2="1308.2"/><line class="cls-9" x1="1807.86" y1="-18.24" x2="-507.77" y2="1318.81"/><line class="cls-9" x1="1826.24" y1="-7.63" x2="-489.4" y2="1329.42"/><line class="cls-9" x1="1844.62" y1="2.98" x2="-471.02" y2="1340.03"/><line class="cls-9" x1="1863" y1="13.59" x2="-452.64" y2="1350.64"/><line class="cls-9" x1="1881.38" y1="24.21" x2="-434.26" y2="1361.25"/><line class="cls-9" x1="1888.37" y1="39.88" x2="-427.26" y2="1376.92"/><line class="cls-9" x1="1918.13" y1="45.43" x2="-397.51" y2="1382.48"/><line class="cls-9" x1="1936.51" y1="56.04" x2="-379.13" y2="1393.09"/><line class="cls-9" x1="1954.89" y1="66.65" x2="-360.75" y2="1403.7"/><line class="cls-9" x1="1973.27" y1="77.26" x2="-342.37" y2="1414.31"/><line class="cls-9" x1="1991.64" y1="87.87" x2="-323.99" y2="1424.92"/><line class="cls-9" x1="2010.02" y1="98.49" x2="-305.61" y2="1435.53"/><line class="cls-9" x1="2028.4" y1="109.1" x2="-287.24" y2="1446.15"/><line class="cls-9" x1="2046.78" y1="119.71" x2="-268.86" y2="1456.76"/><line class="cls-9" x1="2065.16" y1="130.32" x2="-250.48" y2="1467.37"/><line class="cls-9" x1="2083.53" y1="140.93" x2="-232.1" y2="1477.98"/><line class="cls-9" x1="2101.91" y1="151.54" x2="-213.72" y2="1488.59"/><line class="cls-9" x1="2120.29" y1="162.15" x2="-195.35" y2="1499.2"/><line class="cls-9" x1="2138.67" y1="172.77" x2="-176.97" y2="1509.81"/><line class="cls-9" x1="2157.05" y1="183.38" x2="-158.59" y2="1520.43"/><line class="cls-9" x1="2175.42" y1="193.99" x2="-140.21" y2="1531.04"/><line class="cls-9" x1="2193.8" y1="204.6" x2="-121.83" y2="1541.65"/><line class="cls-9" x1="2212.18" y1="215.21" x2="-103.46" y2="1552.26"/><line class="cls-9" x1="2230.56" y1="225.82" x2="-85.08" y2="1562.87"/><line class="cls-9" x1="2248.94" y1="236.44" x2="-66.7" y2="1573.48"/><line class="cls-9" x1="2267.32" y1="247.05" x2="-48.32" y2="1584.1"/><line class="cls-9" x1="2285.69" y1="257.66" x2="-29.94" y2="1594.71"/><line class="cls-9" x1="2304.07" y1="268.27" x2="-11.57" y2="1605.32"/><line class="cls-9" x1="2322.45" y1="278.88" x2="6.81" y2="1615.93"/><line class="cls-9" x1="2340.83" y1="289.49" x2="25.19" y2="1626.54"/><line class="cls-9" x1="2359.21" y1="300.1" x2="43.57" y2="1637.15"/><line class="cls-9" x1="2377.58" y1="310.72" x2="61.95" y2="1647.76"/><line class="cls-9" x1="2395.96" y1="321.33" x2="80.32" y2="1658.38"/><line class="cls-9" x1="2414.34" y1="331.94" x2="98.7" y2="1668.99"/><line class="cls-9" x1="2432.72" y1="342.55" x2="117.08" y2="1679.6"/><line class="cls-9" x1="2451.1" y1="353.16" x2="135.46" y2="1690.21"/><line class="cls-9" x1="2469.47" y1="363.77" x2="153.84" y2="1700.82"/><line class="cls-9" x1="2487.85" y1="374.38" x2="172.21" y2="1711.43"/><line class="cls-9" x1="2506.23" y1="385" x2="190.59" y2="1722.04"/><line class="cls-9" x1="2524.61" y1="395.61" x2="208.97" y2="1732.66"/><line class="cls-9" x1="2542.99" y1="406.22" x2="227.35" y2="1743.27"/><line class="cls-9" x1="2561.36" y1="416.83" x2="245.73" y2="1753.88"/><line class="cls-9" x1="2579.74" y1="427.44" x2="264.11" y2="1764.49"/><line class="cls-9" x1="2598.12" y1="438.05" x2="282.48" y2="1775.1"/><line class="cls-9" x1="2616.5" y1="448.67" x2="300.86" y2="1785.71"/><line class="cls-9" x1="2634.88" y1="459.28" x2="319.24" y2="1796.33"/><line class="cls-9" x1="2653.25" y1="469.89" x2="337.62" y2="1806.94"/><line class="cls-9" x1="2671.63" y1="480.5" x2="356" y2="1817.55"/><line class="cls-9" x1="2690.01" y1="491.11" x2="374.37" y2="1828.16"/><line class="cls-9" x1="2708.39" y1="501.72" x2="392.75" y2="1838.77"/><line class="cls-9" x1="2726.77" y1="512.33" x2="411.13" y2="1849.38"/><line class="cls-9" x1="2745.14" y1="522.95" x2="429.51" y2="1859.99"/><line class="cls-9" x1="2763.52" y1="533.56" x2="447.89" y2="1870.61"/><line class="cls-9" x1="2781.9" y1="544.17" x2="466.26" y2="1881.22"/><line class="cls-9" x1="2800.28" y1="554.78" x2="484.64" y2="1891.83"/><line class="cls-9" x1="2818.66" y1="565.39" x2="503.02" y2="1902.44"/><line class="cls-9" x1="2837.04" y1="576" x2="521.4" y2="1913.05"/><line class="cls-9" x1="2855.41" y1="586.61" x2="539.78" y2="1923.66"/><line class="cls-9" x1="2873.79" y1="597.23" x2="558.15" y2="1934.27"/><line class="cls-9" x1="2892.17" y1="607.84" x2="576.53" y2="1944.89"/><line class="cls-9" x1="2910.55" y1="618.45" x2="594.91" y2="1955.5"/><line class="cls-9" x1="2928.93" y1="629.06" x2="613.29" y2="1966.11"/><line class="cls-9" x1="2947.3" y1="639.67" x2="631.67" y2="1976.72"/><line class="cls-9" x1="668.42" y1="1976.72" x2="-1647.21" y2="639.67"/><line class="cls-9" x1="686.8" y1="1966.11" x2="-1628.84" y2="629.06"/><line class="cls-9" x1="705.18" y1="1955.5" x2="-1610.46" y2="618.45"/><line class="cls-9" x1="723.56" y1="1944.89" x2="-1592.08" y2="607.84"/><line class="cls-9" x1="741.94" y1="1934.27" x2="-1573.7" y2="597.23"/><line class="cls-9" x1="760.31" y1="1923.66" x2="-1555.32" y2="586.61"/><line class="cls-9" x1="778.69" y1="1913.05" x2="-1536.95" y2="576"/><line class="cls-9" x1="797.07" y1="1902.44" x2="-1518.57" y2="565.39"/><line class="cls-9" x1="815.45" y1="1891.83" x2="-1500.19" y2="554.78"/><line class="cls-9" x1="833.83" y1="1881.22" x2="-1481.81" y2="544.17"/><line class="cls-9" x1="852.2" y1="1870.61" x2="-1463.43" y2="533.56"/><line class="cls-9" x1="870.58" y1="1859.99" x2="-1445.06" y2="522.95"/><line class="cls-9" x1="888.96" y1="1849.38" x2="-1426.68" y2="512.33"/><line class="cls-9" x1="907.34" y1="1838.77" x2="-1408.3" y2="501.72"/><line class="cls-9" x1="925.72" y1="1828.16" x2="-1389.92" y2="491.11"/><line class="cls-9" x1="944.09" y1="1817.55" x2="-1371.54" y2="480.5"/><line class="cls-9" x1="962.47" y1="1806.94" x2="-1353.16" y2="469.89"/><line class="cls-9" x1="980.85" y1="1796.33" x2="-1334.79" y2="459.28"/><line class="cls-9" x1="999.23" y1="1785.71" x2="-1316.41" y2="448.67"/><line class="cls-9" x1="1017.61" y1="1775.1" x2="-1298.03" y2="438.05"/><line class="cls-9" x1="1035.98" y1="1764.49" x2="-1279.65" y2="427.44"/><line class="cls-9" x1="1054.36" y1="1753.88" x2="-1261.27" y2="416.83"/><line class="cls-9" x1="1072.74" y1="1743.27" x2="-1242.9" y2="406.22"/><line class="cls-9" x1="1091.12" y1="1732.66" x2="-1224.52" y2="395.61"/><line class="cls-9" x1="1109.5" y1="1722.04" x2="-1206.14" y2="385"/><line class="cls-9" x1="1127.87" y1="1711.43" x2="-1187.76" y2="374.38"/><line class="cls-9" x1="1146.25" y1="1700.82" x2="-1169.38" y2="363.77"/><line class="cls-9" x1="1164.63" y1="1690.21" x2="-1151.01" y2="353.16"/><line class="cls-9" x1="1183.01" y1="1679.6" x2="-1132.63" y2="342.55"/><line class="cls-9" x1="1201.39" y1="1668.99" x2="-1114.25" y2="331.94"/><line class="cls-9" x1="1219.76" y1="1658.38" x2="-1095.87" y2="321.33"/><line class="cls-9" x1="1238.14" y1="1647.76" x2="-1077.49" y2="310.72"/><line class="cls-9" x1="1256.52" y1="1637.15" x2="-1059.12" y2="300.1"/><line class="cls-9" x1="1274.9" y1="1626.54" x2="-1040.74" y2="289.49"/><line class="cls-9" x1="1293.28" y1="1615.93" x2="-1022.36" y2="278.88"/><line class="cls-9" x1="1311.66" y1="1605.32" x2="-1003.98" y2="268.27"/><line class="cls-9" x1="1330.03" y1="1594.71" x2="-985.6" y2="257.66"/><line class="cls-9" x1="1348.41" y1="1584.1" x2="-967.23" y2="247.05"/><line class="cls-9" x1="1366.79" y1="1573.48" x2="-948.85" y2="236.44"/><line class="cls-9" x1="1385.17" y1="1562.87" x2="-930.47" y2="225.82"/><line class="cls-9" x1="1403.55" y1="1552.26" x2="-912.09" y2="215.21"/><line class="cls-9" x1="1421.92" y1="1541.65" x2="-893.71" y2="204.6"/><line class="cls-9" x1="1440.3" y1="1531.04" x2="-875.34" y2="193.99"/><line class="cls-9" x1="1458.68" y1="1520.43" x2="-856.96" y2="183.38"/><line class="cls-9" x1="1477.06" y1="1509.81" x2="-838.58" y2="172.77"/><line class="cls-9" x1="1495.44" y1="1499.2" x2="-820.2" y2="162.15"/><line class="cls-9" x1="1513.81" y1="1488.59" x2="-801.82" y2="151.54"/><line class="cls-9" x1="1532.19" y1="1477.98" x2="-783.44" y2="140.93"/><line class="cls-9" x1="1550.57" y1="1467.37" x2="-765.07" y2="130.32"/><line class="cls-9" x1="1568.95" y1="1456.76" x2="-746.69" y2="119.71"/><line class="cls-9" x1="1587.33" y1="1446.15" x2="-728.31" y2="109.1"/><line class="cls-9" x1="1605.7" y1="1435.53" x2="-709.93" y2="98.49"/><line class="cls-9" x1="1624.08" y1="1424.92" x2="-691.55" y2="87.87"/><line class="cls-9" x1="1642.46" y1="1414.31" x2="-673.18" y2="77.26"/><line class="cls-9" x1="1660.84" y1="1403.7" x2="-654.8" y2="66.65"/><line class="cls-9" x1="1679.22" y1="1393.09" x2="-636.42" y2="56.04"/><line class="cls-9" x1="1697.59" y1="1382.48" x2="-618.04" y2="45.43"/><line class="cls-9" x1="1715.97" y1="1371.87" x2="-599.66" y2="34.82"/><line class="cls-9" x1="1734.35" y1="1361.25" x2="-581.29" y2="24.21"/><line class="cls-9" x1="1752.73" y1="1350.64" x2="-562.91" y2="13.59"/><line class="cls-9" x1="1771.11" y1="1340.03" x2="-544.53" y2="2.98"/><line class="cls-9" x1="1789.49" y1="1329.42" x2="-526.15" y2="-7.63"/><line class="cls-9" x1="1807.86" y1="1318.81" x2="-507.77" y2="-18.24"/><line class="cls-9" x1="1826.24" y1="1308.2" x2="-489.4" y2="-28.85"/><line class="cls-9" x1="1844.62" y1="1297.58" x2="-471.02" y2="-39.46"/><line class="cls-9" x1="1863" y1="1286.97" x2="-452.64" y2="-50.08"/><line class="cls-9" x1="1899.75" y1="1265.75" x2="-415.88" y2="-71.3"/><line class="cls-9" x1="1918.13" y1="1255.14" x2="-397.51" y2="-81.91"/><line class="cls-9" x1="1936.51" y1="1244.53" x2="-379.13" y2="-92.52"/><line class="cls-9" x1="1954.89" y1="1233.92" x2="-360.75" y2="-103.13"/><line class="cls-9" x1="1973.27" y1="1223.3" x2="-342.37" y2="-113.74"/><line class="cls-9" x1="1991.64" y1="1212.69" x2="-323.99" y2="-124.36"/><line class="cls-9" x1="2010.02" y1="1202.08" x2="-305.61" y2="-134.97"/><line class="cls-9" x1="2028.4" y1="1191.47" x2="-287.24" y2="-145.58"/><line class="cls-9" x1="2046.78" y1="1180.86" x2="-268.86" y2="-156.19"/><line class="cls-9" x1="2065.16" y1="1170.25" x2="-250.48" y2="-166.8"/><line class="cls-9" x1="2083.53" y1="1159.64" x2="-232.1" y2="-177.41"/><line class="cls-9" x1="2101.91" y1="1149.02" x2="-213.72" y2="-188.02"/><line class="cls-9" x1="2120.29" y1="1138.41" x2="-195.35" y2="-198.64"/><line class="cls-9" x1="2138.67" y1="1127.8" x2="-176.97" y2="-209.25"/><line class="cls-9" x1="2157.05" y1="1117.19" x2="-158.59" y2="-219.86"/><line class="cls-9" x1="2175.42" y1="1106.58" x2="-140.21" y2="-230.47"/><line class="cls-9" x1="2193.8" y1="1095.97" x2="-121.83" y2="-241.08"/><line class="cls-9" x1="2212.18" y1="1085.36" x2="-103.46" y2="-251.69"/><line class="cls-9" x1="2230.56" y1="1074.74" x2="-85.08" y2="-262.31"/><line class="cls-9" x1="2248.94" y1="1064.13" x2="-66.7" y2="-272.92"/><line class="cls-9" x1="2267.32" y1="1053.52" x2="-48.32" y2="-283.53"/><line class="cls-9" x1="2285.69" y1="1042.91" x2="-29.94" y2="-294.14"/><line class="cls-9" x1="2304.07" y1="1032.3" x2="-11.57" y2="-304.75"/><line class="cls-9" x1="2322.45" y1="1021.69" x2="6.81" y2="-315.36"/><line class="cls-9" x1="2340.83" y1="1011.07" x2="25.19" y2="-325.97"/><line class="cls-9" x1="2359.21" y1="1000.46" x2="43.57" y2="-336.59"/><line class="cls-9" x1="2377.58" y1="989.85" x2="61.95" y2="-347.2"/><line class="cls-9" x1="2395.96" y1="979.24" x2="80.32" y2="-357.81"/><line class="cls-9" x1="2414.34" y1="968.63" x2="98.7" y2="-368.42"/><line class="cls-9" x1="2432.72" y1="958.02" x2="117.08" y2="-379.03"/><line class="cls-9" x1="2451.1" y1="947.41" x2="135.46" y2="-389.64"/><line class="cls-9" x1="2469.47" y1="936.79" x2="153.84" y2="-400.25"/><line class="cls-9" x1="2487.85" y1="926.18" x2="172.21" y2="-410.87"/><line class="cls-9" x1="2506.23" y1="915.57" x2="190.59" y2="-421.48"/><line class="cls-9" x1="2524.61" y1="904.96" x2="208.97" y2="-432.09"/><line class="cls-9" x1="2542.99" y1="894.35" x2="227.35" y2="-442.7"/><line class="cls-9" x1="2561.36" y1="883.74" x2="245.73" y2="-453.31"/><line class="cls-9" x1="2579.74" y1="873.13" x2="264.11" y2="-463.92"/><line class="cls-9" x1="2598.12" y1="862.51" x2="282.48" y2="-474.54"/><line class="cls-9" x1="2616.5" y1="851.9" x2="300.86" y2="-485.15"/><line class="cls-9" x1="2634.88" y1="841.29" x2="319.24" y2="-495.76"/><line class="cls-9" x1="2653.25" y1="830.68" x2="337.62" y2="-506.37"/><line class="cls-9" x1="2671.63" y1="820.07" x2="356" y2="-516.98"/><line class="cls-9" x1="2690.01" y1="809.46" x2="374.37" y2="-527.59"/><line class="cls-9" x1="2708.39" y1="798.84" x2="392.75" y2="-538.2"/><line class="cls-9" x1="2726.77" y1="788.23" x2="411.13" y2="-548.82"/><line class="cls-9" x1="2745.14" y1="777.62" x2="429.51" y2="-559.43"/><line class="cls-9" x1="2763.52" y1="767.01" x2="447.89" y2="-570.04"/><line class="cls-9" x1="2781.9" y1="756.4" x2="466.26" y2="-580.65"/><line class="cls-9" x1="2800.28" y1="745.79" x2="484.64" y2="-591.26"/><line class="cls-9" x1="2818.66" y1="735.18" x2="503.02" y2="-601.87"/><line class="cls-9" x1="2837.04" y1="724.56" x2="521.4" y2="-612.48"/><line class="cls-9" x1="2855.41" y1="713.95" x2="539.78" y2="-623.1"/><line class="cls-9" x1="2873.79" y1="703.34" x2="558.15" y2="-633.71"/><line class="cls-9" x1="2892.17" y1="692.73" x2="576.53" y2="-644.32"/><line class="cls-9" x1="2910.55" y1="682.12" x2="594.91" y2="-654.93"/><line class="cls-9" x1="2928.93" y1="671.51" x2="613.29" y2="-665.54"/><line class="cls-9" x1="2947.3" y1="660.9" x2="631.67" y2="-676.15"/></g></g></svg>